#!OML:ASF H:\Pregnant\Project 1\Capture day 1\Session 1\femalepreg.ASF
:FULLY-SPECIFIED
:DEGREES
375
root 6.98874 15.666 24.9578 17.381 -87.9133 0.872101
lowerback -6.91877 3.09411 2.90541
upperback -15.3342 2.83054 -4.17232
thorax -12.4252 0.299161 -6.21541
lowerneck -8.50022 17.5746 17.1639
upperneck 24.0136 26.5683 -17.3173
head 14.5337 11.4859 -4.65836
rclavicle -1.78906e-014 2.06736e-014
rhumerus 53.4296 -73.7363 -12.5057
rradius 28.383
rwrist -0.930426
rhand -47.8663 -29.2735
rfingers 7.12502
rthumb -20.5399 -58.2069
lclavicle -1.78906e-014 2.06736e-014
lhumerus 30.077 72.6261 -12.5967
lradius 27.9975
lwrist 21.3954
lhand -49.0128 -67.6827
lfingers 7.12502
lthumb -21.6413 -38.8721
rfemur -27.6422 24.8355 10.7634
rtibia 30.6864
rfoot -16.6983 -24.9455
rtoes -11.8645
lfemur 0 0 0
ltibia 0
lfoot 0 0
ltoes 0
376
root 6.9893 15.6666 24.9586 17.5478 -87.9318 0.710805
lowerback -6.93123 3.11271 2.88887
upperback -15.3509 2.85404 -4.16508
thorax -12.4358 0.311861 -6.1987
lowerneck -8.563 17.5512 17.1019
upperneck 24.1134 26.5336 -17.2493
head 14.5589 11.4633 -4.63103
rclavicle 4.1546e-014 -9.54166e-015
rhumerus 53.1365 -73.682 -12.2392
rradius 28.7449
rwrist -1.45066
rhand -49.2591 -29.5412
rfingers 7.12502
rthumb -21.8778 -58.3244
lclavicle 4.1546e-014 -9.54166e-015
lhumerus 29.8607 72.7189 -12.7092
lradius 28.2233
lwrist 21.6017
lhand -49.0127 -69.2122
lfingers 7.12502
lthumb -21.6412 -40.4016
rfemur -27.6471 24.8265 10.7606
rtibia 30.6676
rfoot -16.6834 -24.9199
rtoes -11.8759
lfemur 0 0 0
ltibia 0
lfoot 0 0
ltoes 0
377
root 6.9899 15.6672 24.9594 17.8253 -87.9498 0.439192
lowerback -6.9438 3.14114 2.87155
upperback -15.3718 2.89121 -4.15319
thorax -12.4497 0.331577 -6.17691
lowerneck -8.60924 17.5147 17.0133
upperneck 24.2149 26.4811 -17.1675
head 14.5702 11.4337 -4.60139
rclavicle 1.15295e-014 -4.77083e-015
rhumerus 52.7903 -73.6277 -11.8758
rradius 29.1097
rwrist -1.89059
rhand -50.518 -30.1068
rfingers 7.12502
rthumb -23.0862 -58.7438
lclavicle 1.15295e-014 -4.77083e-015
lhumerus 29.7153 72.8227 -12.7155
lradius 28.471
lwrist 21.7643
lhand -48.9778 -70.8749
lfingers 7.12502
lthumb -21.6077 -42.0605
rfemur -27.6507 24.8102 10.7632
rtibia 30.6443
rfoot -16.6653 -24.8872
rtoes -11.8918
lfemur 0 0 0
ltibia 0
lfoot 0 0
ltoes 0
378
root 6.99053 15.6678 24.96 18.1942 -87.9683 0.0769653
lowerback -6.95763 3.18168 2.84925
upperback -15.3963 2.94511 -4.13736
thorax -12.4653 0.360389 -6.14842
lowerneck -8.64059 17.464 16.8941
upperneck 24.3174 26.4089 -17.0706
head 14.5664 11.396 -4.56867
rclavicle 2.40529e-014 -3.4191e-014
rhumerus 52.252 -73.5637 -11.2828
rradius 29.4968
rwrist -2.25446
rhand -51.6464 -30.9215
rfingers 7.12502
rthumb -24.1685 -59.4189
lclavicle 2.40529e-014 -3.4191e-014
lhumerus 29.7189 72.9558 -12.5339
lradius 28.739
lwrist 21.8704
lhand -48.9302 -72.4639
lfingers 7.12502
lthumb -21.562 -43.6442
rfemur -27.6538 24.7963 10.7682
rtibia 30.6166
rfoot -16.6471 -24.8546
rtoes -11.8992
lfemur 0 0 0
ltibia 0
lfoot 0 0
ltoes 0
379
root 6.99107 15.6683 24.9607 18.629 -87.986 -0.347434
lowerback -6.98012 3.24048 2.81968
upperback -15.4245 3.02393 -4.11816
thorax -12.4773 0.402824 -6.11235
lowerneck -8.65739 17.3913 16.7296
upperneck 24.4227 26.3078 -16.9585
head 14.5441 11.3449 -4.53351
rclavicle 2.38542e-015 -2.38542e-015
rhumerus 51.4308 -73.4816 -10.3594
rradius 29.9208
rwrist -2.54586
rhand -52.6045 -32.1638
rfingers 7.12502
rthumb -25.0868 -60.5359
lclavicle 2.38542e-015 -2.38542e-015
lhumerus 30.0065 73.1428 -12.0148
lradius 29.0229
lwrist 21.8958
lhand -48.857 -73.8984
lfingers 7.12502
lthumb -21.4917 -45.0706
rfemur -27.6592 24.7774 10.7752
rtibia 30.5854
rfoot -16.6223 -24.8192
rtoes -11.9221
lfemur 0 0 0
ltibia 0
lfoot 0 0
ltoes 0
380
root 6.99159 15.6688 24.9613 19.1128 -88.0043 -0.818465
lowerback -6.99366 3.27009 2.7945
upperback -15.4521 3.06263 -4.09786
thorax -12.4995 0.4242 -6.07712
lowerneck -8.68362 17.3495 16.6519
upperneck 24.5244 26.2437 -16.8637
head 14.5485 11.3145 -4.50457
rclavicle -4.19436e-014 1.90833e-014
rhumerus 50.7856 -73.4018 -9.70388
rradius 30.3803
rwrist -2.70565
rhand -53.472 -33.3558
rfingers 7.12502
rthumb -25.9178 -61.609
lclavicle -4.19436e-014 1.90833e-014
lhumerus 30.0841 73.3207 -11.7819
lradius 29.3346
lwrist 21.9312
lhand -48.7922 -75.0318
lfingers 7.12502
lthumb -21.4294 -46.197
rfemur -27.666 24.7589 10.7834
rtibia 30.5519
rfoot -16.5908 -24.7865
rtoes -11.9591
lfemur 0 0 0
ltibia 0
lfoot 0 0
ltoes 0
381
root 6.99204 15.6693 24.9618 19.6198 -88.0231 -1.31036
lowerback -7.00864 3.29175 2.77081
upperback -15.4781 3.0904 -4.07751
thorax -12.5205 0.440004 -6.04225
lowerneck -8.71395 17.3135 16.595
upperneck 24.6193 26.1864 -16.7785
head 14.5578 11.2877 -4.47947
rclavicle -1.45113e-014 -8.74653e-015
rhumerus 50.0783 -73.3128 -9.00648
rradius 30.8571
rwrist -2.78224
rhand -54.2519 -34.4559
rfingers 7.12502
rthumb -26.6644 -62.5978
lclavicle -1.45113e-014 -8.74653e-015
lhumerus 30.0938 73.5002 -11.6323
lradius 29.6768
lwrist 21.9595
lhand -48.7521 -76.0313
lfingers 7.12502
lthumb -21.3909 -47.1921
rfemur -27.6748 24.7379 10.7921
rtibia 30.5176
rfoot -16.5561 -24.752
rtoes -12.0036
lfemur 0 0 0
ltibia 0
lfoot 0 0
ltoes 0
382
root 6.99238 15.6701 24.9623 20.1568 -88.0433 -1.83199
lowerback -7.01851 3.29415 2.75376
upperback -15.4996 3.09187 -4.05969
thorax -12.5423 0.441791 -6.0134
lowerneck -8.76527 17.2969 16.594
upperneck 24.7088 26.1517 -16.7111
head 14.587 11.2722 -4.46008
rclavicle 2.3059e-014 -3.33958e-014
rhumerus 49.4215 -73.2195 -8.42173
rradius 31.3626
rwrist -2.78164
rhand -55.0082 -35.1435
rfingers 7.12502
rthumb -27.388 -63.1731
lclavicle 2.3059e-014 -3.33958e-014
lhumerus 29.7724 73.6265 -11.8657
lradius 30.058
lwrist 22.045
lhand -48.7338 -76.9182
lfingers 7.12502
lthumb -21.3733 -48.077
rfemur -27.6838 24.7149 10.8017
rtibia 30.4833
rfoot -16.5213 -24.7148
rtoes -12.0509
lfemur 0 0 0
ltibia 0
lfoot 0 0
ltoes 0
383
root 6.99265 15.671 24.9627 20.6714 -88.0651 -2.33134
lowerback -7.02233 3.28094 2.74175
upperback -15.5153 3.07183 -4.04931
thorax -12.5629 0.431906 -5.99522
lowerneck -8.84596 17.2961 16.6405
upperneck 24.7944 26.1326 -16.6541
head 14.6342 11.2646 -4.44356
rclavicle 2.26615e-014 -7.15625e-015
rhumerus 48.7446 -73.1188 -7.87352
rradius 31.8994
rwrist -2.73507
rhand -55.6785 -35.7082
rfingers 7.12502
rthumb -28.0289 -63.6348
lclavicle 2.26615e-014 -7.15625e-015
lhumerus 29.1302 73.6931 -12.4748
lradius 30.4728
lwrist 22.1929
lhand -48.7397 -77.8023
lfingers 7.12502
lthumb -21.379 -48.9618
rfemur -27.6928 24.6941 10.8096
rtibia 30.4496
rfoot -16.4926 -24.6752
rtoes -12.0812
lfemur 0 0 0
ltibia 0
lfoot 0 0
ltoes 0
384
root 6.99289 15.672 24.9632 21.178 -88.0865 -2.82413
lowerback -7.01906 3.25089 2.72849
upperback -15.5244 3.0293 -4.04065
thorax -12.5827 0.411203 -5.97778
lowerneck -8.95577 17.312 16.7377
upperneck 24.8774 26.1314 -16.6119
head 14.7017 11.2655 -4.43158
rclavicle 1.63003e-014 3.97569e-015
rhumerus 47.8373 -72.9858 -7.15228
rradius 32.4959
rwrist -2.73273
rhand -56.2774 -36.1225
rfingers 7.12502
rthumb -28.6013 -63.9542
lclavicle 1.63003e-014 3.97569e-015
lhumerus 28.1686 73.6984 -13.4536
lradius 30.916
lwrist 22.3895
lhand -48.7665 -78.6799
lfingers 7.12502
lthumb -21.4048 -49.8423
rfemur -27.7001 24.6712 10.8174
rtibia 30.4168
rfoot -16.4732 -24.629
rtoes -12.0869
lfemur 0 0 0
ltibia 0
lfoot 0 0
ltoes 0
385
root 6.99316 15.6732 24.9636 21.6796 -88.107 -3.31347
lowerback -7.00965 3.21566 2.71156
upperback -15.53 2.97994 -4.03484
thorax -12.6029 0.387527 -5.96144
lowerneck -9.08025 17.3318 16.868
upperneck 24.9582 26.1314 -16.579
head 14.7794 11.2682 -4.4256
rclavicle -3.61788e-014 0
rhumerus 46.5218 -72.8005 -6.05402
rradius 33.1667
rwrist -2.83186
rhand -56.801 -36.3492
rfingers 7.12502
rthumb -29.1015 -64.0955
lclavicle -3.61788e-014 0
lhumerus 27.0534 73.656 -14.6107
lradius 31.38
lwrist 22.6056
lhand -48.8392 -79.5053
lfingers 7.12502
lthumb -21.4746 -50.6756
rfemur -27.7059 24.6497 10.825
rtibia 30.3851
rfoot -16.4623 -24.5801
rtoes -12.0692
lfemur 0 0 0
ltibia 0
lfoot 0 0
ltoes 0
386
root 6.99356 15.6743 24.964 22.1417 -88.1241 -3.76635
lowerback -6.99534 3.19089 2.68413
upperback -15.5348 2.94549 -4.02889
thorax -12.6233 0.372825 -5.93964
lowerneck -9.20655 17.3387 16.9849
upperneck 25.04 26.1121 -16.5419
head 14.8508 11.2623 -4.42136
rclavicle 1.98785e-015 4.29375e-014
rhumerus 44.7217 -72.5557 -4.45605
rradius 33.9151
rwrist -3.04415
rhand -57.2406 -36.3544
rfingers 7.12502
rthumb -29.5212 -64.0273
lclavicle 1.98785e-015 4.29375e-014
lhumerus 25.9984 73.599 -15.6769
lradius 31.8665
lwrist 22.8084
lhand -48.9374 -80.2283
lfingers 7.12502
lthumb -21.5689 -51.4094
rfemur -27.7086 24.6269 10.8331
rtibia 30.3544
rfoot -16.4572 -24.5307
rtoes -12.0364
lfemur 0 0 0
ltibia 0
lfoot 0 0
ltoes 0
